<?xml version="1.0" encoding="utf-8"?>
<!-- Generator: Adobe Illustrator 21.1.0, SVG Export Plug-In . SVG Version: 6.00 Build 0)  -->
<svg version="1.1" id="Layer_1" xmlns="http://www.w3.org/2000/svg" xmlns:xlink="http://www.w3.org/1999/xlink" x="0px" y="0px"
	 viewBox="0 0 324.6 279.7" style="enable-background:new 0 0 324.6 279.7;" xml:space="preserve">
<style type="text/css">
	.st0{fill:#58595B;}
	.st1{fill:none;}
	.st2{fill:#FFD32E;}
	.st3{fill:#F15A29;}
	.st4{fill:#1B75BC;}
	.st5{fill:#8DC63F;}
	.st6{fill:#62A0D7;}
	.st7{fill:#98D9E8;}
	.st8{fill:#06466D;}
</style>
<polygon class="st0" points="120.8,113.7 68.1,85.8 99.5,64 213,123.8 137,177.5 135,211.5 256.1,130.9 256.1,112.6 97.5,28.5 
	12.9,86.3 95,129.9 "/>
<polygon class="st1" points="159.6,124.3 127.9,108.6 120.8,113.7 95,129.9 83.8,137.5 113.2,154.7 "/>
<polygon class="st2" points="179.1,134.9 159.6,124.3 113.2,154.7 110.2,255.5 256.1,161.8 256.1,130.9 135,211.5 137,177.5 
	137.5,164.3 "/>
<polygon class="st3" points="83.8,137.5 113.2,154.7 110.2,255.5 80.3,244.9 "/>
<polygon class="st4" points="95,129.9 83.8,137.5 83.2,154.7 12.9,117.2 12.9,86.3 "/>
<polygon class="st3" points="99.5,92.4 90.9,97.9 68.1,85.8 99.5,64 "/>
<polygon class="st3" points="99.5,92.4 99.5,64 213,123.8 189.6,140.3 "/>
<polygon class="st0" points="180.9,146.5 171.4,140.3 146.7,157.8 156.3,163.9 "/>
<polygon class="st3" points="236,174.7 256.1,185.6 256.1,215.5 209.1,192 "/>
<polygon class="st1" points="127.9,108.6 99.5,92.4 90.9,97.9 120.8,113.7 "/>
<polygon class="st1" points="189.6,140.3 179.1,134.9 171.4,140.3 180.9,146.5 "/>
<polygon class="st4" points="156.3,163.9 146.7,157.8 137.5,164.3 137,177.5 "/>
<polygon class="st1" points="256.1,161.8 236,174.7 256.1,185.6 "/>
<polygon class="st1" points="256.1,112.6 256.1,95.4 249.5,92.4 232.6,100.2 "/>
<polygon class="st5" points="83.8,137.5 113.2,154.7 159.6,124.3 128.8,108 "/>
<polygon class="st6" points="249,64 249.5,92.4 256.1,95.4 256.1,215.5 209.1,192 183.1,208.7 280.4,260.1 282.4,80.9 "/>
<polygon class="st7" points="249,64 209.1,87.7 232.6,100.2 249.5,92.4 "/>
<polygon class="st5" points="180.9,72.8 241.4,32.1 308.3,66.5 282.4,80.9 249,64 209.1,87.7 "/>
<polygon class="st8" points="308.3,66.5 282.4,80.9 280.4,260.1 308.3,245.4 "/>
</svg>
